<?xml version="1.0" standalone="no"?>
<!DOCTYPE svg PUBLIC "-//W3C//DTD SVG 20010904//EN"
 "http://www.w3.org/TR/2001/REC-SVG-20010904/DTD/svg10.dtd">
<svg version="1.0" xmlns="http://www.w3.org/2000/svg"
 width="288.000000pt" height="288.000000pt" viewBox="0 0 288.000000 288.000000"
 preserveAspectRatio="xMidYMid meet">
<g transform="translate(0.000000,288.000000) scale(0.100000,-0.100000)"
fill="#000000" stroke="none">
<path d="M1391 2312 l-44 -25 54 -29 c30 -15 61 -33 69 -38 8 -5 44 -26 78
-46 l64 -36 -4 -149 c-1 -82 -1 -148 2 -147 3 2 24 14 47 28 l42 25 3 149 3
150 -40 23 c-171 102 -209 123 -219 122 -6 -1 -31 -13 -55 -27z m170 -79 c54
-31 100 -64 102 -74 9 -32 7 -204 -2 -218 -6 -9 -10 23 -13 91 -4 125 -6 129
-121 196 -43 25 -80 49 -83 54 -13 20 26 4 117 -49z"/>
<path d="M1188 2193 l-128 -75 0 -54 c0 -53 6 -63 26 -45 5 5 60 39 122 75
l113 65 112 -65 c62 -36 116 -70 122 -75 19 -18 25 -8 25 45 l0 54 -127 73
c-70 41 -130 75 -133 76 -3 1 -62 -32 -132 -74z m200 -5 c78 -43 144 -89 138
-95 -2 -3 -48 18 -100 47 -110 59 -105 59 -218 -7 -78 -45 -128 -56 -72 -16
36 26 176 103 187 103 4 0 33 -14 65 -32z"/>
<path d="M1738 2026 l4 -143 -83 -48 c-46 -27 -105 -60 -131 -74 -26 -14 -48
-28 -48 -31 0 -3 22 -16 50 -29 l49 -23 73 42 c40 24 97 56 126 72 l52 30 0
147 0 148 -40 27 c-22 14 -43 26 -48 26 -4 0 -6 -65 -4 -144z m52 -59 c0 -62
-4 -117 -8 -123 -11 -16 -180 -114 -198 -114 -25 0 -7 17 61 54 35 20 78 48
94 62 l31 26 0 109 c0 71 4 108 10 104 6 -4 10 -54 10 -118z"/>
<path d="M1188 2047 l-127 -72 -1 -147 0 -146 50 -31 50 -31 0 150 0 149 67
38 c38 21 77 43 88 50 11 7 39 22 63 34 23 11 42 22 42 24 0 3 -98 55 -102 55
-2 -1 -60 -33 -130 -73z m142 18 c0 -2 -32 -23 -71 -46 -39 -22 -85 -54 -102
-69 -32 -28 -32 -29 -35 -141 -3 -71 -7 -107 -13 -98 -11 18 -11 220 0 238 21
32 221 138 221 116z"/>
<path d="M1238 1927 l-48 -30 0 -147 0 -148 124 -71 c68 -39 129 -71 135 -71
14 0 91 43 90 50 0 3 -56 36 -124 75 l-125 69 -2 151 -3 151 -47 -29z m12
-160 c0 -74 4 -108 15 -124 8 -11 51 -42 95 -68 80 -47 102 -65 79 -65 -14 0
-166 85 -191 108 -15 13 -18 33 -18 134 0 72 4 118 10 118 6 0 10 -41 10 -103z"/>
<path d="M1320 1732 l0 -58 122 -70 c67 -38 125 -70 129 -72 4 -2 64 30 133
70 l126 73 0 57 0 56 -87 -52 c-49 -29 -107 -63 -130 -75 l-41 -24 -89 53
c-48 29 -99 61 -113 70 -52 34 -50 35 -50 -28z m256 -122 c11 0 60 23 108 51
49 27 91 47 94 44 7 -7 -28 -37 -68 -57 -14 -7 -47 -25 -73 -40 -26 -16 -56
-28 -65 -28 -23 0 -194 102 -200 118 -2 8 38 -9 90 -37 52 -28 104 -51 114
-51z"/>
<path d="M302 928 c3 -154 5 -173 20 -176 15 -3 18 9 20 108 l3 112 70 0 70 0
3 -112 c2 -99 5 -111 20 -108 15 3 17 19 20 112 2 75 -1 113 -10 123 -9 12
-31 14 -95 11 l-83 -3 0 53 c0 46 -2 52 -20 52 -20 0 -20 -5 -18 -172z"/>
<path d="M621 986 c-8 -9 -11 -50 -9 -117 l3 -104 110 0 110 0 3 33 c3 27 0
32 -17 32 -16 0 -21 -6 -21 -25 0 -24 -2 -25 -75 -25 l-75 0 0 45 0 45 95 0
95 0 0 59 c0 71 0 71 -120 71 -63 0 -91 -4 -99 -14z m177 -52 l3 -39 -76 0
-75 0 0 36 c0 20 2 38 4 40 2 2 35 3 73 3 l68 -2 3 -38z"/>
<path d="M927 878 c1 -110 3 -123 18 -123 16 0 18 10 16 90 -3 118 0 125 55
125 32 0 44 4 44 15 0 19 -70 21 -88 3 -9 -9 -12 -9 -12 0 0 7 -8 12 -17 12
-16 0 -18 -12 -16 -122z"/>
<path d="M1111 973 c13 -16 37 -42 53 -60 l28 -31 -48 -56 c-26 -31 -51 -56
-56 -56 -4 0 -8 -4 -8 -10 0 -15 36 -12 52 3 7 8 28 31 47 52 l34 39 46 -52
c25 -29 54 -52 64 -52 9 0 17 3 17 6 0 3 -23 32 -51 65 l-52 59 44 47 c24 27
47 50 51 51 4 2 8 8 8 13 0 11 -50 12 -50 2 -1 -5 -18 -27 -39 -51 l-38 -43
-38 50 c-29 37 -46 51 -64 51 l-24 0 24 -27z"/>
<path d="M1412 988 c-13 -13 -17 -195 -4 -215 5 -8 44 -12 112 -14 l105 -2 3
120 3 120 -103 2 c-70 1 -107 -2 -116 -11z m176 -111 l-3 -92 -72 -3 -73 -3 0
94 c0 51 2 96 4 98 2 2 36 2 75 1 l72 -4 -3 -91z"/>
<path d="M1722 981 c-4 -11 -5 -64 -2 -118 l5 -98 88 0 87 0 0 -27 0 -28 -91
0 c-68 0 -90 -3 -86 -12 3 -10 30 -12 103 -9 54 1 102 5 107 8 4 2 7 71 7 153
l0 148 -105 1 c-96 1 -106 0 -113 -18z m178 -107 l0 -95 -71 3 -72 3 -1 92
c-1 51 2 94 6 95 4 2 37 1 73 0 l65 -4 0 -94z"/>
<path d="M2030 981 c-11 -21 -14 -161 -4 -199 6 -22 9 -23 113 -20 l106 3 3
95 c4 147 10 140 -108 140 -88 0 -100 -2 -110 -19z m178 -105 l3 -96 -76 0
-75 0 0 93 c0 52 2 96 4 98 2 2 35 3 73 3 l68 -2 3 -96z"/>
<path d="M2340 874 c0 -117 1 -124 20 -124 19 0 20 7 20 110 l0 110 60 2 c33
0 66 1 73 2 9 1 12 -27 12 -109 1 -100 2 -110 19 -110 17 0 18 9 17 114 -1 63
-4 119 -7 123 -3 5 -52 8 -110 7 l-104 -1 0 -124z"/>
</g>
</svg>
