<?xml version="1.0" standalone="no"?>
<!DOCTYPE svg PUBLIC "-//W3C//DTD SVG 20010904//EN"
 "http://www.w3.org/TR/2001/REC-SVG-20010904/DTD/svg10.dtd">
<svg version="1.0" xmlns="http://www.w3.org/2000/svg"
 width="114.000000pt" height="132.000000pt" viewBox="0 0 114.000000 132.000000"
 preserveAspectRatio="xMidYMid meet">
<g transform="translate(0.000000,132.000000) scale(0.100000,-0.100000)"
fill="#16495a" stroke="none">
<path fill="#FFFFFF" d="M0 660 l0 -660 570 0 570 0 0 660 0 660 -570 0 -570 0 0 -660z m745
522 l170 -98 6 -75 c4 -41 7 -137 8 -215 l1 -141 -61 -33 c-33 -17 -63 -29
-67 -25 -4 4 -8 96 -10 204 l-3 198 -77 43 c-131 73 -262 154 -262 161 0 7
110 79 120 79 3 0 82 -45 175 -98z m-162 -112 l177 -101 0 -38 c0 -60 -11
-101 -27 -101 -8 0 -60 26 -116 59 -137 78 -203 111 -224 111 -10 0 -83 -36
-163 -80 -79 -44 -153 -83 -163 -86 -27 -9 -37 12 -37 78 l0 56 173 100 c94
55 179 100 187 101 8 0 95 -44 193 -99z m458 -62 l59 -33 0 -215 -1 -215 -168
-97 c-93 -54 -175 -98 -182 -98 -20 1 -122 63 -122 75 0 9 129 88 276 169 l67
37 0 204 c0 113 3 205 6 205 3 0 32 -15 65 -32z m-584 -70 c29 -18 53 -38 53
-45 0 -11 -96 -71 -282 -177 l-48 -27 0 -204 c0 -141 -3 -205 -11 -205 -6 0
-40 16 -76 36 l-65 37 8 206 c4 133 11 208 18 213 142 90 324 197 336 197 7 1
38 -13 67 -31z m-104 -320 c4 -62 7 -154 7 -204 l0 -92 170 -98 c93 -55 169
-103 167 -108 -2 -6 -31 -25 -65 -44 l-61 -33 -118 67 c-147 83 -229 138 -237
159 -3 9 -6 101 -6 204 l0 187 62 37 c35 20 65 37 69 37 3 0 9 -51 12 -112z
m229 -219 l162 -91 35 17 c20 9 95 50 167 91 72 41 136 74 142 74 8 0 12 -24
12 -74 l0 -74 -174 -102 -175 -101 -127 72 c-154 86 -196 112 -210 130 -24 30
-26 149 -3 149 5 0 81 -41 171 -91z"/>
</g>
</svg>
